<svg width="461" height="88" viewBox="0 0 461 88" fill="none" xmlns="http://www.w3.org/2000/svg">
<circle cx="44" cy="44" r="44" transform="translate(187)" fill="#FF9CA7"/>
<circle cx="44" cy="44" r="44" transform="translate(187)" fill="#FF9CA7"/>
<path d="M42.9295 18.5447C36.1705 36.1334 33.5573 56.5333 21.9961 56.5333C10.435 56.5333 9.19607 35.8667 1.86281 18.5447C-5.47044 1.22276 10.435 0 21.9961 0C33.5573 0 49.6885 0.956095 42.9295 18.5447Z" transform="translate(208.604 6.66663)" fill="#FF6978"/>
<path d="M18.2174 47.3587C27.7167 47.3587 29.8174 28.5587 35.4174 13.6707C41.0174 -1.21726 27.7167 0.0254322 18.2174 0.0254322C8.71809 0.0254322 -3.64935 -0.417236 1.01738 13.6707C5.68411 27.7587 8.71809 47.3587 18.2174 47.3587Z" transform="translate(212.383 12.6414)" fill="white"/>
<rect width="4.26667" height="22.9333" transform="translate(228.6 61.6)" fill="#FF6978"/>
<circle cx="6" cy="6" r="6" transform="translate(224.6 47.2001)" fill="#C7354C"/>
<circle cx="44" cy="44" r="44" transform="translate(373)" fill="#FF9CA7"/>
<circle cx="44" cy="44" r="44" transform="translate(373)" fill="#63686C"/>
<path d="M42.9295 18.5447C36.1705 36.1334 33.5573 56.5333 21.9961 56.5333C10.435 56.5333 9.19607 35.8667 1.86281 18.5447C-5.47044 1.22276 10.435 0 21.9961 0C33.5573 0 49.6885 0.956095 42.9295 18.5447Z" transform="translate(394.604 6.66663)" fill="#393E41"/>
<path d="M18.2174 47.3587C27.7167 47.3587 29.8174 28.5587 35.4174 13.6707C41.0174 -1.21726 27.7167 0.0254322 18.2174 0.0254322C8.7181 0.0254322 -3.64934 -0.417236 1.01739 13.6707C5.68412 27.7587 8.7181 47.3587 18.2174 47.3587Z" transform="translate(398.383 12.6414)" fill="white"/>
<rect width="4.26667" height="22.9333" transform="translate(414.6 61.6)" fill="#393E41"/>
<circle cx="6" cy="6" r="6" transform="translate(410.6 47.2001)" fill="#13181B"/>
<circle cx="44" cy="44" r="44" fill="#FF9CA7"/>
<circle cx="44" cy="44" r="44" fill="#60BEFF"/>
<path d="M42.9295 18.5447C36.1705 36.1334 33.5573 56.5333 21.9961 56.5333C10.435 56.5333 9.19607 35.8667 1.86281 18.5447C-5.47044 1.22276 10.435 0 21.9961 0C33.5573 0 49.6885 0.956095 42.9295 18.5447Z" transform="translate(21.6035 6.66663)" fill="#058ED9"/>
<path d="M18.2174 47.3587C27.7167 47.3587 29.8174 28.5587 35.4174 13.6707C41.0174 -1.21726 27.7167 0.0254322 18.2174 0.0254322C8.71809 0.0254322 -3.64935 -0.417236 1.01738 13.6707C5.68411 27.7587 8.71809 47.3587 18.2174 47.3587Z" transform="translate(25.3818 12.6414)" fill="white"/>
<rect width="4.26667" height="22.9333" transform="translate(41.6006 61.6)" fill="#058ED9"/>
<circle cx="6" cy="6" r="6" transform="translate(37.6006 47.2001)" fill="#0061A7"/>
</svg>
